%TF.GenerationSoftware,KiCad,Pcbnew,(6.0.7)*%
%TF.CreationDate,2023-04-07T13:33:32+02:00*%
%TF.ProjectId,RFID_PCB_Final,52464944-5f50-4434-925f-46696e616c2e,rev?*%
%TF.SameCoordinates,Original*%
%TF.FileFunction,Soldermask,Top*%
%TF.FilePolarity,Negative*%
%FSLAX46Y46*%
G04 Gerber Fmt 4.6, Leading zero omitted, Abs format (unit mm)*
G04 Created by KiCad (PCBNEW (6.0.7)) date 2023-04-07 13:33:32*
%MOMM*%
%LPD*%
G01*
G04 APERTURE LIST*
G04 Aperture macros list*
%AMRoundRect*
0 Rectangle with rounded corners*
0 $1 Rounding radius*
0 $2 $3 $4 $5 $6 $7 $8 $9 X,Y pos of 4 corners*
0 Add a 4 corners polygon primitive as box body*
4,1,4,$2,$3,$4,$5,$6,$7,$8,$9,$2,$3,0*
0 Add four circle primitives for the rounded corners*
1,1,$1+$1,$2,$3*
1,1,$1+$1,$4,$5*
1,1,$1+$1,$6,$7*
1,1,$1+$1,$8,$9*
0 Add four rect primitives between the rounded corners*
20,1,$1+$1,$2,$3,$4,$5,0*
20,1,$1+$1,$4,$5,$6,$7,0*
20,1,$1+$1,$6,$7,$8,$9,0*
20,1,$1+$1,$8,$9,$2,$3,0*%
G04 Aperture macros list end*
%ADD10R,3.000000X3.000000*%
%ADD11C,3.000000*%
%ADD12R,1.905000X2.000000*%
%ADD13O,1.905000X2.000000*%
%ADD14R,2.200000X2.200000*%
%ADD15O,2.200000X2.200000*%
%ADD16R,2.000000X1.905000*%
%ADD17O,2.000000X1.905000*%
%ADD18R,1.000000X1.500000*%
%ADD19C,1.400000*%
%ADD20O,1.400000X1.400000*%
%ADD21RoundRect,1.000000X-0.375000X0.000000X0.375000X0.000000X0.375000X0.000000X-0.375000X0.000000X0*%
%ADD22R,1.700000X1.700000*%
%ADD23O,1.700000X1.700000*%
G04 APERTURE END LIST*
D10*
%TO.C,J2*%
X90170000Y-114300000D03*
D11*
X95250000Y-114300000D03*
%TD*%
D12*
%TO.C,U2*%
X85090000Y-108895000D03*
D13*
X87630000Y-108895000D03*
X90170000Y-108895000D03*
%TD*%
D14*
%TO.C,D1*%
X91948000Y-91313000D03*
D15*
X81788000Y-91313000D03*
%TD*%
D16*
%TO.C,Q1*%
X99639000Y-110490000D03*
D17*
X99639000Y-113030000D03*
X99639000Y-115570000D03*
%TD*%
D10*
%TO.C,J1*%
X79248000Y-114300000D03*
D11*
X84328000Y-114300000D03*
%TD*%
D18*
%TO.C,JP1*%
X97521000Y-106680000D03*
X98821000Y-106680000D03*
%TD*%
D19*
%TO.C,R1*%
X83185000Y-99695000D03*
D20*
X90805000Y-99695000D03*
%TD*%
D14*
%TO.C,D2*%
X81915000Y-95123000D03*
D15*
X92075000Y-95123000D03*
%TD*%
D21*
%TO.C,U1*%
X78813000Y-91354000D03*
X78813000Y-93894000D03*
X78813000Y-96434000D03*
X78813000Y-98974000D03*
X78813000Y-101514000D03*
X78813000Y-104054000D03*
X78813000Y-106594000D03*
X94978000Y-106594000D03*
X94978000Y-104054000D03*
X94978000Y-101514000D03*
X94978000Y-98974000D03*
X94978000Y-96434000D03*
X94978000Y-93894000D03*
X94978000Y-91354000D03*
%TD*%
D19*
%TO.C,R2*%
X83185000Y-101727000D03*
D20*
X90805000Y-101727000D03*
%TD*%
D22*
%TO.C,J9*%
X101346000Y-89662000D03*
D23*
X101346000Y-92202000D03*
X101346000Y-94742000D03*
X101346000Y-97282000D03*
X101346000Y-99822000D03*
X101346000Y-102362000D03*
X101346000Y-104902000D03*
%TD*%
M02*
