M48
; DRILL file {KiCad (6.0.7)} date Fri Apr  7 13:33:44 2023
; FORMAT={-:-/ absolute / metric / decimal}
; #@! TF.CreationDate,2023-04-07T13:33:44+02:00
; #@! TF.GenerationSoftware,Kicad,Pcbnew,(6.0.7)
; #@! TF.FileFunction,MixedPlating,1,2
FMAT,2
METRIC
; #@! TA.AperFunction,Plated,PTH,ComponentDrill
T1C0.700
; #@! TA.AperFunction,Plated,PTH,ComponentDrill
T2C1.000
; #@! TA.AperFunction,Plated,PTH,ComponentDrill
T3C1.100
; #@! TA.AperFunction,Plated,PTH,ComponentDrill
T4C1.520
%
G90
G05
T1
X83.185Y-99.695
X83.185Y-101.727
X90.805Y-99.695
X90.805Y-101.727
T2
X78.813Y-91.354
X78.813Y-93.894
X78.813Y-96.434
X78.813Y-98.974
X78.813Y-101.514
X78.813Y-104.054
X78.813Y-106.594
X94.978Y-91.354
X94.978Y-93.894
X94.978Y-96.434
X94.978Y-98.974
X94.978Y-101.514
X94.978Y-104.054
X94.978Y-106.594
X101.346Y-89.662
X101.346Y-92.202
X101.346Y-94.742
X101.346Y-97.282
X101.346Y-99.822
X101.346Y-102.362
X101.346Y-104.902
T3
X81.788Y-91.313
X81.915Y-95.123
X85.09Y-108.895
X87.63Y-108.895
X90.17Y-108.895
X91.948Y-91.313
X92.075Y-95.123
X99.639Y-110.49
X99.639Y-113.03
X99.639Y-115.57
T4
X79.248Y-114.3
X84.328Y-114.3
X90.17Y-114.3
X95.25Y-114.3
T0
M30
