%TF.GenerationSoftware,KiCad,Pcbnew,(6.0.7)*%
%TF.CreationDate,2023-04-07T13:33:32+02:00*%
%TF.ProjectId,RFID_PCB_Final,52464944-5f50-4434-925f-46696e616c2e,rev?*%
%TF.SameCoordinates,Original*%
%TF.FileFunction,Legend,Top*%
%TF.FilePolarity,Positive*%
%FSLAX46Y46*%
G04 Gerber Fmt 4.6, Leading zero omitted, Abs format (unit mm)*
G04 Created by KiCad (PCBNEW (6.0.7)) date 2023-04-07 13:33:32*
%MOMM*%
%LPD*%
G01*
G04 APERTURE LIST*
G04 Aperture macros list*
%AMRoundRect*
0 Rectangle with rounded corners*
0 $1 Rounding radius*
0 $2 $3 $4 $5 $6 $7 $8 $9 X,Y pos of 4 corners*
0 Add a 4 corners polygon primitive as box body*
4,1,4,$2,$3,$4,$5,$6,$7,$8,$9,$2,$3,0*
0 Add four circle primitives for the rounded corners*
1,1,$1+$1,$2,$3*
1,1,$1+$1,$4,$5*
1,1,$1+$1,$6,$7*
1,1,$1+$1,$8,$9*
0 Add four rect primitives between the rounded corners*
20,1,$1+$1,$2,$3,$4,$5,0*
20,1,$1+$1,$4,$5,$6,$7,0*
20,1,$1+$1,$6,$7,$8,$9,0*
20,1,$1+$1,$8,$9,$2,$3,0*%
G04 Aperture macros list end*
%ADD10C,0.150000*%
%ADD11C,0.125000*%
%ADD12C,0.120000*%
%ADD13C,0.127000*%
%ADD14R,3.000000X3.000000*%
%ADD15C,3.000000*%
%ADD16R,1.905000X2.000000*%
%ADD17O,1.905000X2.000000*%
%ADD18R,2.200000X2.200000*%
%ADD19O,2.200000X2.200000*%
%ADD20R,2.000000X1.905000*%
%ADD21O,2.000000X1.905000*%
%ADD22R,1.000000X1.500000*%
%ADD23C,1.400000*%
%ADD24O,1.400000X1.400000*%
%ADD25RoundRect,1.000000X-0.375000X0.000000X0.375000X0.000000X0.375000X0.000000X-0.375000X0.000000X0*%
%ADD26R,1.700000X1.700000*%
%ADD27O,1.700000X1.700000*%
G04 APERTURE END LIST*
D10*
X76544976Y-88080857D02*
X76278309Y-88080857D01*
X76225928Y-88499904D02*
X76325928Y-87699904D01*
X76706880Y-87699904D01*
X76878309Y-88461809D02*
X76987833Y-88499904D01*
X77178309Y-88499904D01*
X77259261Y-88461809D01*
X77302119Y-88423714D01*
X77349738Y-88347523D01*
X77359261Y-88271333D01*
X77330690Y-88195142D01*
X77297357Y-88157047D01*
X77225928Y-88118952D01*
X77078309Y-88080857D01*
X77006880Y-88042761D01*
X76973547Y-88004666D01*
X76944976Y-87928476D01*
X76954500Y-87852285D01*
X77002119Y-87776095D01*
X77044976Y-87738000D01*
X77125928Y-87699904D01*
X77316404Y-87699904D01*
X77425928Y-87738000D01*
X78486428Y-117036904D02*
X78753095Y-117836904D01*
X79019761Y-117036904D01*
X79286428Y-117532142D02*
X79895952Y-117532142D01*
X79591190Y-117836904D02*
X79591190Y-117227380D01*
X83819761Y-117036904D02*
X84086428Y-117836904D01*
X84353095Y-117036904D01*
X84619761Y-117532142D02*
X85229285Y-117532142D01*
X97815476Y-89154000D02*
X97739285Y-89115904D01*
X97625000Y-89115904D01*
X97510714Y-89154000D01*
X97434523Y-89230190D01*
X97396428Y-89306380D01*
X97358333Y-89458761D01*
X97358333Y-89573047D01*
X97396428Y-89725428D01*
X97434523Y-89801619D01*
X97510714Y-89877809D01*
X97625000Y-89915904D01*
X97701190Y-89915904D01*
X97815476Y-89877809D01*
X97853571Y-89839714D01*
X97853571Y-89573047D01*
X97701190Y-89573047D01*
X98196428Y-89915904D02*
X98196428Y-89115904D01*
X98653571Y-89915904D01*
X98653571Y-89115904D01*
X99034523Y-89915904D02*
X99034523Y-89115904D01*
X99225000Y-89115904D01*
X99339285Y-89154000D01*
X99415476Y-89230190D01*
X99453571Y-89306380D01*
X99491666Y-89458761D01*
X99491666Y-89573047D01*
X99453571Y-89725428D01*
X99415476Y-89801619D01*
X99339285Y-89877809D01*
X99225000Y-89915904D01*
X99034523Y-89915904D01*
X97244047Y-91691904D02*
X97739285Y-91691904D01*
X97472619Y-91996666D01*
X97586904Y-91996666D01*
X97663095Y-92034761D01*
X97701190Y-92072857D01*
X97739285Y-92149047D01*
X97739285Y-92339523D01*
X97701190Y-92415714D01*
X97663095Y-92453809D01*
X97586904Y-92491904D01*
X97358333Y-92491904D01*
X97282142Y-92453809D01*
X97244047Y-92415714D01*
X98082142Y-92415714D02*
X98120238Y-92453809D01*
X98082142Y-92491904D01*
X98044047Y-92453809D01*
X98082142Y-92415714D01*
X98082142Y-92491904D01*
X98386904Y-91691904D02*
X98882142Y-91691904D01*
X98615476Y-91996666D01*
X98729761Y-91996666D01*
X98805952Y-92034761D01*
X98844047Y-92072857D01*
X98882142Y-92149047D01*
X98882142Y-92339523D01*
X98844047Y-92415714D01*
X98805952Y-92453809D01*
X98729761Y-92491904D01*
X98501190Y-92491904D01*
X98425000Y-92453809D01*
X98386904Y-92415714D01*
X99110714Y-91691904D02*
X99377380Y-92491904D01*
X99644047Y-91691904D01*
X97167857Y-95067904D02*
X97167857Y-94267904D01*
X97434523Y-94839333D01*
X97701190Y-94267904D01*
X97701190Y-95067904D01*
X98234523Y-94267904D02*
X98386904Y-94267904D01*
X98463095Y-94306000D01*
X98539285Y-94382190D01*
X98577380Y-94534571D01*
X98577380Y-94801238D01*
X98539285Y-94953619D01*
X98463095Y-95029809D01*
X98386904Y-95067904D01*
X98234523Y-95067904D01*
X98158333Y-95029809D01*
X98082142Y-94953619D01*
X98044047Y-94801238D01*
X98044047Y-94534571D01*
X98082142Y-94382190D01*
X98158333Y-94306000D01*
X98234523Y-94267904D01*
X98882142Y-95029809D02*
X98996428Y-95067904D01*
X99186904Y-95067904D01*
X99263095Y-95029809D01*
X99301190Y-94991714D01*
X99339285Y-94915523D01*
X99339285Y-94839333D01*
X99301190Y-94763142D01*
X99263095Y-94725047D01*
X99186904Y-94686952D01*
X99034523Y-94648857D01*
X98958333Y-94610761D01*
X98920238Y-94572666D01*
X98882142Y-94496476D01*
X98882142Y-94420285D01*
X98920238Y-94344095D01*
X98958333Y-94306000D01*
X99034523Y-94267904D01*
X99225000Y-94267904D01*
X99339285Y-94306000D01*
X99682142Y-95067904D02*
X99682142Y-94267904D01*
X97167857Y-97643904D02*
X97167857Y-96843904D01*
X97434523Y-97415333D01*
X97701190Y-96843904D01*
X97701190Y-97643904D01*
X98082142Y-97643904D02*
X98082142Y-96843904D01*
X98425000Y-97605809D02*
X98539285Y-97643904D01*
X98729761Y-97643904D01*
X98805952Y-97605809D01*
X98844047Y-97567714D01*
X98882142Y-97491523D01*
X98882142Y-97415333D01*
X98844047Y-97339142D01*
X98805952Y-97301047D01*
X98729761Y-97262952D01*
X98577380Y-97224857D01*
X98501190Y-97186761D01*
X98463095Y-97148666D01*
X98425000Y-97072476D01*
X98425000Y-96996285D01*
X98463095Y-96920095D01*
X98501190Y-96882000D01*
X98577380Y-96843904D01*
X98767857Y-96843904D01*
X98882142Y-96882000D01*
X99377380Y-96843904D02*
X99529761Y-96843904D01*
X99605952Y-96882000D01*
X99682142Y-96958190D01*
X99720238Y-97110571D01*
X99720238Y-97377238D01*
X99682142Y-97529619D01*
X99605952Y-97605809D01*
X99529761Y-97643904D01*
X99377380Y-97643904D01*
X99301190Y-97605809D01*
X99225000Y-97529619D01*
X99186904Y-97377238D01*
X99186904Y-97110571D01*
X99225000Y-96958190D01*
X99301190Y-96882000D01*
X99377380Y-96843904D01*
X97396428Y-100181809D02*
X97510714Y-100219904D01*
X97701190Y-100219904D01*
X97777380Y-100181809D01*
X97815476Y-100143714D01*
X97853571Y-100067523D01*
X97853571Y-99991333D01*
X97815476Y-99915142D01*
X97777380Y-99877047D01*
X97701190Y-99838952D01*
X97548809Y-99800857D01*
X97472619Y-99762761D01*
X97434523Y-99724666D01*
X97396428Y-99648476D01*
X97396428Y-99572285D01*
X97434523Y-99496095D01*
X97472619Y-99458000D01*
X97548809Y-99419904D01*
X97739285Y-99419904D01*
X97853571Y-99458000D01*
X98653571Y-100143714D02*
X98615476Y-100181809D01*
X98501190Y-100219904D01*
X98425000Y-100219904D01*
X98310714Y-100181809D01*
X98234523Y-100105619D01*
X98196428Y-100029428D01*
X98158333Y-99877047D01*
X98158333Y-99762761D01*
X98196428Y-99610380D01*
X98234523Y-99534190D01*
X98310714Y-99458000D01*
X98425000Y-99419904D01*
X98501190Y-99419904D01*
X98615476Y-99458000D01*
X98653571Y-99496095D01*
X98996428Y-100219904D02*
X98996428Y-99419904D01*
X99453571Y-100219904D02*
X99110714Y-99762761D01*
X99453571Y-99419904D02*
X98996428Y-99877047D01*
X97453571Y-102757809D02*
X97567857Y-102795904D01*
X97758333Y-102795904D01*
X97834523Y-102757809D01*
X97872619Y-102719714D01*
X97910714Y-102643523D01*
X97910714Y-102567333D01*
X97872619Y-102491142D01*
X97834523Y-102453047D01*
X97758333Y-102414952D01*
X97605952Y-102376857D01*
X97529761Y-102338761D01*
X97491666Y-102300666D01*
X97453571Y-102224476D01*
X97453571Y-102148285D01*
X97491666Y-102072095D01*
X97529761Y-102034000D01*
X97605952Y-101995904D01*
X97796428Y-101995904D01*
X97910714Y-102034000D01*
X98253571Y-102795904D02*
X98253571Y-101995904D01*
X98444047Y-101995904D01*
X98558333Y-102034000D01*
X98634523Y-102110190D01*
X98672619Y-102186380D01*
X98710714Y-102338761D01*
X98710714Y-102453047D01*
X98672619Y-102605428D01*
X98634523Y-102681619D01*
X98558333Y-102757809D01*
X98444047Y-102795904D01*
X98253571Y-102795904D01*
X99015476Y-102567333D02*
X99396428Y-102567333D01*
X98939285Y-102795904D02*
X99205952Y-101995904D01*
X99472619Y-102795904D01*
X97986904Y-105371904D02*
X97720238Y-104990952D01*
X97529761Y-105371904D02*
X97529761Y-104571904D01*
X97834523Y-104571904D01*
X97910714Y-104610000D01*
X97948809Y-104648095D01*
X97986904Y-104724285D01*
X97986904Y-104838571D01*
X97948809Y-104914761D01*
X97910714Y-104952857D01*
X97834523Y-104990952D01*
X97529761Y-104990952D01*
X98291666Y-105333809D02*
X98405952Y-105371904D01*
X98596428Y-105371904D01*
X98672619Y-105333809D01*
X98710714Y-105295714D01*
X98748809Y-105219523D01*
X98748809Y-105143333D01*
X98710714Y-105067142D01*
X98672619Y-105029047D01*
X98596428Y-104990952D01*
X98444047Y-104952857D01*
X98367857Y-104914761D01*
X98329761Y-104876666D01*
X98291666Y-104800476D01*
X98291666Y-104724285D01*
X98329761Y-104648095D01*
X98367857Y-104610000D01*
X98444047Y-104571904D01*
X98634523Y-104571904D01*
X98748809Y-104610000D01*
X98977380Y-104571904D02*
X99434523Y-104571904D01*
X99205952Y-105371904D02*
X99205952Y-104571904D01*
D11*
X78151092Y-87776857D02*
X78228473Y-88110190D01*
X78389187Y-87776857D01*
X78799901Y-88110190D02*
X78514187Y-88110190D01*
X78657044Y-88110190D02*
X78719544Y-87610190D01*
X78662997Y-87681619D01*
X78609425Y-87729238D01*
X78558830Y-87753047D01*
X79395139Y-88110190D02*
X79436806Y-87776857D01*
X79424901Y-87872095D02*
X79454663Y-87824476D01*
X79481449Y-87800666D01*
X79532044Y-87776857D01*
X79579663Y-87776857D01*
X79898116Y-88086380D02*
X79847520Y-88110190D01*
X79752282Y-88110190D01*
X79707639Y-88086380D01*
X79689782Y-88038761D01*
X79713592Y-87848285D01*
X79743354Y-87800666D01*
X79793949Y-87776857D01*
X79889187Y-87776857D01*
X79933830Y-87800666D01*
X79951687Y-87848285D01*
X79945735Y-87895904D01*
X79701687Y-87943523D01*
X80127282Y-87776857D02*
X80204663Y-88110190D01*
X80365377Y-87776857D01*
X80671925Y-87610190D02*
X80719544Y-87610190D01*
X80764187Y-87634000D01*
X80785020Y-87657809D01*
X80802877Y-87705428D01*
X80814782Y-87800666D01*
X80799901Y-87919714D01*
X80764187Y-88014952D01*
X80734425Y-88062571D01*
X80707639Y-88086380D01*
X80657044Y-88110190D01*
X80609425Y-88110190D01*
X80564782Y-88086380D01*
X80543949Y-88062571D01*
X80526092Y-88014952D01*
X80514187Y-87919714D01*
X80529068Y-87800666D01*
X80564782Y-87705428D01*
X80594544Y-87657809D01*
X80621330Y-87634000D01*
X80671925Y-87610190D01*
D10*
X89408428Y-117836904D02*
X89408428Y-117036904D01*
X89598904Y-117036904D01*
X89713190Y-117075000D01*
X89789380Y-117151190D01*
X89827476Y-117227380D01*
X89865571Y-117379761D01*
X89865571Y-117494047D01*
X89827476Y-117646428D01*
X89789380Y-117722619D01*
X89713190Y-117798809D01*
X89598904Y-117836904D01*
X89408428Y-117836904D01*
X90208428Y-117532142D02*
X90817952Y-117532142D01*
X90513190Y-117836904D02*
X90513190Y-117227380D01*
X94856047Y-117836904D02*
X94856047Y-117036904D01*
X95046523Y-117036904D01*
X95160809Y-117075000D01*
X95237000Y-117151190D01*
X95275095Y-117227380D01*
X95313190Y-117379761D01*
X95313190Y-117494047D01*
X95275095Y-117646428D01*
X95237000Y-117722619D01*
X95160809Y-117798809D01*
X95046523Y-117836904D01*
X94856047Y-117836904D01*
X95656047Y-117532142D02*
X96265571Y-117532142D01*
D12*
%TO.C,J2*%
X97790000Y-110490000D02*
X87630000Y-110490000D01*
X97790000Y-118110000D02*
X97790000Y-110490000D01*
X87630000Y-118110000D02*
X97790000Y-118110000D01*
X87630000Y-110490000D02*
X87630000Y-118110000D01*
X97790000Y-116840000D02*
X87630000Y-116840000D01*
%TO.C,U2*%
X82510000Y-105625000D02*
X82510000Y-110266000D01*
X82510000Y-110266000D02*
X92750000Y-110266000D01*
X82510000Y-107135000D02*
X92750000Y-107135000D01*
X89481000Y-105625000D02*
X89481000Y-107135000D01*
X85780000Y-105625000D02*
X85780000Y-107135000D01*
X92750000Y-105625000D02*
X92750000Y-110266000D01*
X82510000Y-105625000D02*
X92750000Y-105625000D01*
%TO.C,D1*%
X84148000Y-92783000D02*
X89588000Y-92783000D01*
X88688000Y-92783000D02*
X88688000Y-89843000D01*
X88808000Y-92783000D02*
X88808000Y-89843000D01*
X90608000Y-91313000D02*
X89588000Y-91313000D01*
X83128000Y-91313000D02*
X84148000Y-91313000D01*
X84148000Y-89843000D02*
X84148000Y-92783000D01*
X89588000Y-92783000D02*
X89588000Y-89843000D01*
X88568000Y-92783000D02*
X88568000Y-89843000D01*
X89588000Y-89843000D02*
X84148000Y-89843000D01*
%TO.C,Q1*%
X102909000Y-114881000D02*
X101399000Y-114881000D01*
X102909000Y-107910000D02*
X98268000Y-107910000D01*
X102909000Y-111180000D02*
X101399000Y-111180000D01*
X98268000Y-107910000D02*
X98268000Y-118150000D01*
X102909000Y-118150000D02*
X98268000Y-118150000D01*
X101399000Y-107910000D02*
X101399000Y-118150000D01*
X102909000Y-107910000D02*
X102909000Y-118150000D01*
%TO.C,J1*%
X86868000Y-118110000D02*
X86868000Y-110490000D01*
X76708000Y-118110000D02*
X86868000Y-118110000D01*
X86868000Y-116840000D02*
X76708000Y-116840000D01*
X76708000Y-110490000D02*
X76708000Y-118110000D01*
X86868000Y-110490000D02*
X76708000Y-110490000D01*
%TO.C,JP1*%
X96771000Y-105680000D02*
X99571000Y-105680000D01*
X96771000Y-107680000D02*
X96771000Y-105680000D01*
X99571000Y-105680000D02*
X99571000Y-107680000D01*
X99571000Y-107680000D02*
X96771000Y-107680000D01*
%TO.C,R1*%
X84125000Y-99695000D02*
X85075000Y-99695000D01*
X88915000Y-100615000D02*
X88915000Y-98775000D01*
X85075000Y-98775000D02*
X85075000Y-100615000D01*
X85075000Y-100615000D02*
X88915000Y-100615000D01*
X88915000Y-98775000D02*
X85075000Y-98775000D01*
X89865000Y-99695000D02*
X88915000Y-99695000D01*
%TO.C,D2*%
X84275000Y-93653000D02*
X84275000Y-96593000D01*
X85175000Y-93653000D02*
X85175000Y-96593000D01*
X84275000Y-96593000D02*
X89715000Y-96593000D01*
X90735000Y-95123000D02*
X89715000Y-95123000D01*
X85295000Y-93653000D02*
X85295000Y-96593000D01*
X85055000Y-93653000D02*
X85055000Y-96593000D01*
X83255000Y-95123000D02*
X84275000Y-95123000D01*
X89715000Y-93653000D02*
X84275000Y-93653000D01*
X89715000Y-96593000D02*
X89715000Y-93653000D01*
D13*
%TO.C,U1*%
X82296000Y-105410000D02*
X92964000Y-105410000D01*
X82296000Y-109474000D02*
X82296000Y-105410000D01*
X95778000Y-88474000D02*
X78649541Y-88474000D01*
X89947200Y-93400000D02*
X89947200Y-94416000D01*
X77978000Y-100067500D02*
X77978000Y-100448500D01*
X77978000Y-105147500D02*
X77978000Y-105528500D01*
X82296000Y-109474000D02*
X77978000Y-109474000D01*
X95758000Y-109474000D02*
X92964000Y-109474000D01*
X90633000Y-90352000D02*
X90633000Y-92257000D01*
X89947200Y-94416000D02*
X91014001Y-94416000D01*
X77978000Y-102607500D02*
X77978000Y-102988500D01*
X91395000Y-89971000D02*
X91014000Y-89971000D01*
X83267000Y-94162000D02*
X83267000Y-94416000D01*
X91395000Y-89971000D02*
X91395000Y-87558000D01*
X77978000Y-107687500D02*
X77978000Y-109474000D01*
X91395000Y-92638000D02*
X91014000Y-92638000D01*
X95758000Y-92447500D02*
X95758000Y-92828500D01*
X95758000Y-100067500D02*
X95758000Y-100448500D01*
X95758000Y-97527500D02*
X95758000Y-97908500D01*
X95758000Y-107687500D02*
X95758000Y-109474000D01*
X91395000Y-92638000D02*
X91395000Y-94035000D01*
X82378000Y-87558000D02*
X82378000Y-90148800D01*
X78649541Y-88474000D02*
X77978000Y-89145500D01*
X95758000Y-102607500D02*
X95758000Y-102988500D01*
X77978000Y-89145500D02*
X77978000Y-90288500D01*
X82378000Y-87558000D02*
X91395000Y-87558000D01*
X77978000Y-94987500D02*
X77978000Y-95368500D01*
X95758000Y-94987500D02*
X95758000Y-95368500D01*
X82378000Y-92434800D02*
X82378000Y-93750185D01*
X84054400Y-94416000D02*
X84054400Y-93400000D01*
X84054400Y-94416000D02*
X83267000Y-94416000D01*
X77978000Y-92447500D02*
X77978000Y-92828500D01*
X95758000Y-105147500D02*
X95758000Y-105528500D01*
X84054400Y-93400000D02*
X89947200Y-93400000D01*
X77978000Y-97527500D02*
X77978000Y-97908500D01*
X82378000Y-93781000D02*
X82886000Y-93781000D01*
X92964000Y-105410000D02*
X92964000Y-109474000D01*
X95778000Y-88474000D02*
X95778000Y-90252000D01*
X83267000Y-94162000D02*
G75*
G03*
X82886000Y-93781000I-381000J0D01*
G01*
X91395000Y-94035001D02*
G75*
G03*
X91014001Y-94416000I634700J-1015699D01*
G01*
X91014000Y-89971000D02*
G75*
G03*
X90633000Y-90352000I0J-381000D01*
G01*
X82378000Y-92434800D02*
G75*
G03*
X82378000Y-90148800I-634880J1143000D01*
G01*
X90633000Y-92257000D02*
G75*
G03*
X91014000Y-92638000I381000J0D01*
G01*
D12*
%TO.C,R2*%
X85075000Y-102647000D02*
X88915000Y-102647000D01*
X89865000Y-101727000D02*
X88915000Y-101727000D01*
X84125000Y-101727000D02*
X85075000Y-101727000D01*
X88915000Y-102647000D02*
X88915000Y-100807000D01*
X85075000Y-100807000D02*
X85075000Y-102647000D01*
X88915000Y-100807000D02*
X85075000Y-100807000D01*
%TO.C,J9*%
X102676000Y-88332000D02*
X102676000Y-89662000D01*
X100016000Y-90932000D02*
X102676000Y-90932000D01*
X102676000Y-90932000D02*
X102676000Y-106232000D01*
X100016000Y-106232000D02*
X102676000Y-106232000D01*
X101346000Y-88332000D02*
X102676000Y-88332000D01*
X100016000Y-90932000D02*
X100016000Y-106232000D01*
%TD*%
%LPC*%
D14*
%TO.C,J2*%
X90170000Y-114300000D03*
D15*
X95250000Y-114300000D03*
%TD*%
D16*
%TO.C,U2*%
X85090000Y-108895000D03*
D17*
X87630000Y-108895000D03*
X90170000Y-108895000D03*
%TD*%
D18*
%TO.C,D1*%
X91948000Y-91313000D03*
D19*
X81788000Y-91313000D03*
%TD*%
D20*
%TO.C,Q1*%
X99639000Y-110490000D03*
D21*
X99639000Y-113030000D03*
X99639000Y-115570000D03*
%TD*%
D14*
%TO.C,J1*%
X79248000Y-114300000D03*
D15*
X84328000Y-114300000D03*
%TD*%
D22*
%TO.C,JP1*%
X97521000Y-106680000D03*
X98821000Y-106680000D03*
%TD*%
D23*
%TO.C,R1*%
X83185000Y-99695000D03*
D24*
X90805000Y-99695000D03*
%TD*%
D18*
%TO.C,D2*%
X81915000Y-95123000D03*
D19*
X92075000Y-95123000D03*
%TD*%
D25*
%TO.C,U1*%
X78813000Y-91354000D03*
X78813000Y-93894000D03*
X78813000Y-96434000D03*
X78813000Y-98974000D03*
X78813000Y-101514000D03*
X78813000Y-104054000D03*
X78813000Y-106594000D03*
X94978000Y-106594000D03*
X94978000Y-104054000D03*
X94978000Y-101514000D03*
X94978000Y-98974000D03*
X94978000Y-96434000D03*
X94978000Y-93894000D03*
X94978000Y-91354000D03*
%TD*%
D23*
%TO.C,R2*%
X83185000Y-101727000D03*
D24*
X90805000Y-101727000D03*
%TD*%
D26*
%TO.C,J9*%
X101346000Y-89662000D03*
D27*
X101346000Y-92202000D03*
X101346000Y-94742000D03*
X101346000Y-97282000D03*
X101346000Y-99822000D03*
X101346000Y-102362000D03*
X101346000Y-104902000D03*
%TD*%
M02*
